<svg xmlns="http://www.w3.org/2000/svg" width="1924.847" height="539.22" viewBox="0 0 1924.847 539.22">
  <g id="Group_808" data-name="Group 808" transform="translate(-0.153 203.51)">
    <path id="Path_49" data-name="Path 49" d="M-4.847,169.49H1920V540.11s-257.052-196.262-552.922-205.994-281.329,118.5-419.11,118.58-169.062-99.379-343.552-98.21S420.775,561.413,319.4,559.515,230.136,455.526,145.153,452.7s-150,182.014-150,182.014Z" transform="translate(5 -299)" fill="#f4f4f4"/>
    <path id="Path_48" data-name="Path 48" d="M-4.847,169.49H1920V540.11s-257.052-196.262-552.922-205.994-273.3,142.805-411.084,142.89S778.905,353.317,604.416,354.486,420.775,561.413,319.4,559.515,230.136,455.526,145.153,452.7s-150,182.014-150,182.014Z" transform="translate(5 -373)" fill="#d43434"/>
  </g>
</svg>
