<svg xmlns="http://www.w3.org/2000/svg" width="366" height="285" viewBox="0 0 366 285">
  <g id="Path_421" data-name="Path 421" fill="none">
    <path d="M 362 284.5 L 50 284.5 C 43.31731796264648 284.5 36.83481979370117 283.1913146972656 30.73254585266113 280.6102294921875 C 24.83818244934082 278.1171264648438 19.54436302185059 274.5479431152344 14.9982271194458 270.0017700195312 C 10.45204544067383 265.4556274414062 6.882863521575928 260.1618041992188 4.389772891998291 254.2674560546875 C 1.808681845664978 248.1651763916016 0.5 241.6826782226562 0.5 235 L 0.5 4 C 0.5 2.070091009140015 2.070091009140015 0.5 4 0.5 L 284.4353332519531 0.5 L 316 0.5 C 322.6826782226562 0.5 329.1651916503906 1.808681845664978 335.2674560546875 4.389772891998291 C 341.1618041992188 6.882863521575928 346.4556274414062 10.45204544067383 351.0017700195312 14.9982271194458 C 355.5479431152344 19.54436302185059 359.1171264648438 24.83818244934082 361.6102294921875 30.73254585266113 C 364.1913146972656 36.83481979370117 365.5 43.31731796264648 365.5 50 L 365.5 281 C 365.5 282.9299011230469 363.9299011230469 284.5 362 284.5 Z" stroke="none"/>
    <path d="M 4 1 C 2.34576416015625 1 1 2.34576416015625 1 4 L 1 235 C 1 241.6154174804688 2.29541015625 248.0323638916016 4.85028076171875 254.0726776123047 C 7.318145751953125 259.907470703125 10.85134887695312 265.1478271484375 15.35177612304688 269.6482238769531 C 19.8521728515625 274.1486511230469 25.09255981445312 277.6818542480469 30.92730712890625 280.1497192382812 C 36.9676513671875 282.70458984375 43.38458251953125 284 50 284 L 362 284 C 363.6542358398438 284 365 282.6542358398438 365 281 L 365 50 C 365 43.38459777832031 363.70458984375 36.96763610839844 361.1497192382812 30.92732238769531 C 358.6818542480469 25.09255981445312 355.1486511230469 19.8521728515625 350.6482238769531 15.35177612304688 C 346.1478271484375 10.85134887695312 340.907470703125 7.318145751953125 335.0726928710938 4.85028076171875 C 329.0323486328125 2.29541015625 322.6154174804688 1 316 1 L 284.435302734375 1 L 4 1 M 4 0 L 284.435302734375 0 L 316 0 C 343.6142272949219 0 366 22.38577270507812 366 50 L 366 281 C 366 283.2091369628906 364.2091369628906 285 362 285 L 50 285 C 22.38577270507812 285 0 262.6142272949219 0 235 L 0 4 C 0 1.790863037109375 1.790863037109375 0 4 0 Z" stroke="none" fill="#3acb77"/>
  </g>

  <text x="101" y="21" style="fill:black; font-size:16px;"> most of us are easy prey
    <tspan x="34" y="91">his is just a display of the font’s shape .</tspan>
    <tspan x="34" y="111">his is just a display of the font’s shape .</tspan>
    <tspan x="34" y="131">his is just a display of the font’s shape .</tspan>
    <tspan x="34" y="151">his is just a display of the font’s shape .</tspan>
    <tspan x="34" y="171">his is just a display of the font’s shape .</tspan>
  </text>

</svg>
