<svg xmlns="http://www.w3.org/2000/svg" width="366" height="285" viewBox="0 0 366 285">
  <g id="Rectangle_54" data-name="Rectangle 54" fill="#fff" stroke="#3acb77" stroke-width="1">
    <path d="M4,0H316a50,50,0,0,1,50,50V281a4,4,0,0,1-4,4H50A50,50,0,0,1,0,235V4A4,4,0,0,1,4,0Z" stroke="none"/>
    <path d="M4,.5H316A49.5,49.5,0,0,1,365.5,50V281a3.5,3.5,0,0,1-3.5,3.5H50A49.5,49.5,0,0,1,.5,235V4A3.5,3.5,0,0,1,4,.5Z" fill="none"/>
  </g>

  <text x="101" y="21" style="fill:black; font-size:16px;"> most of us are easy prey
    <tspan x="34" y="91">his is just a display of the font’s shape .</tspan>
    <tspan x="34" y="111">his is just a display of the font’s shape .</tspan>
    <tspan x="34" y="131">his is just a display of the font’s shape .</tspan>
    <tspan x="34" y="151">his is just a display of the font’s shape .</tspan>
    <tspan x="34" y="171">his is just a display of the font’s shape .</tspan>
  </text>

</svg>
